<svg stroke-miterlimit="10" style="fill-rule:nonzero;clip-rule:evenodd;stroke-linecap:round;stroke-linejoin:round;" version="1.1" viewBox="0 0 24 24" xml:space="preserve" xmlns="http://www.w3.org/2000/svg" xmlns:xlink="http://www.w3.org/1999/xlink">
<path d="M23.4074 11.1778C22.9793 4.87548 17.524 0.115586 11.2236 0.543695C8.08507 0.757558 5.32886 2.21953 3.40523 4.40963L3.39952 4.40582C3.38579 4.42336 3.37397 4.44089 3.36216 4.45843C1.45187 6.66225 0.376833 9.5904 0.590315 12.7297C0.610138 13.0294 0.645211 13.3229 0.688288 13.6142C0.688288 13.6283 0.6921 13.6397 0.694007 13.6534C0.72336 13.8452 0.756908 14.0373 0.793886 14.2253C0.828937 14.399 0.868086 14.5718 0.911301 14.7437C2.2326 20.0106 7.16672 23.7409 12.776 23.3593C19.0764 22.9308 23.8382 17.4759 23.4097 11.174C23.4097 11.174 23.4074 11.1778 23.4074 11.1778ZM20.918 11.3478C20.971 12.1232 20.9219 12.8826 20.7831 13.6145C20.7831 13.6107 20.7793 13.6069 20.7793 13.6027C19.949 11.5769 18.309 10.113 16.8684 9.30448C17.16 5.87161 15.9954 4.42336 14.6763 4.18853C14.1598 4.09149 13.6261 4.21183 13.2011 4.52117C12.7762 4.8305 12.4977 5.30142 12.4313 5.82281C12.3665 6.3254 12.5042 6.83316 12.8141 7.23408C13.1241 7.63501 13.5808 7.89615 14.0835 7.95992C14.1754 7.97174 14.2654 7.97555 14.3535 7.97365C14.3599 8.09617 14.3632 8.21883 14.3634 8.34152C13.1438 8.04036 12.0048 7.97937 10.9656 8.07353C10.5748 8.09916 10.1859 8.14817 9.80094 8.2203C9.93055 7.06139 10.3667 5.758 11.2103 4.80686C12.0261 3.88508 13.2399 3.35861 14.5627 3.49357C14.8136 3.51911 15.0816 3.58163 15.3221 3.66206C15.3339 3.66588 15.3458 3.66969 15.3557 3.67159C18.4207 4.92047 20.6775 7.83069 20.9161 11.3478C20.9161 11.3478 20.918 11.3478 20.918 11.3478ZM12.9464 13.0938C12.9464 13.0938 12.9464 13.0957 12.9445 13.0976C12.6553 13.5131 12.3277 13.9005 11.9659 14.2546C11.4179 13.6758 10.954 13.0229 10.5878 12.315C10.5702 12.2776 10.5508 12.2444 10.5329 12.2071L10.5329 12.2033C10.3183 11.7445 10.1466 11.2668 10.0201 10.7764C10.8321 10.5846 11.6289 10.5141 12.3906 10.5514L12.5118 10.5572L12.5156 10.5572C12.9933 10.5964 13.4904 10.6845 14.005 10.8255C13.7661 11.6288 13.41 12.3925 12.9483 13.0919C12.9483 13.0919 12.9464 13.0938 12.9464 13.0938ZM9.03965 3.5172L9.03393 3.52482C7.69318 5.25518 7.24677 7.40601 7.2666 9.05783C4.1467 10.5217 3.47728 12.254 3.93132 13.5143C3.94275 13.5497 3.95686 13.5829 3.97058 13.6164C4.3779 14.5894 5.49652 15.0484 6.46985 14.6419C7.44284 14.2346 7.90182 13.116 7.49533 12.1427C7.4598 12.0596 7.41866 11.9791 7.3722 11.9017C7.47017 11.8369 7.57577 11.7729 7.68937 11.7062C8.03742 12.9139 8.55245 13.9336 9.15325 14.7868C9.37054 15.1097 9.60537 15.4208 9.86155 15.7204C8.793 16.1881 7.44653 16.4622 6.19957 16.2076C4.99415 15.9613 3.93132 15.1745 3.38541 13.9607C3.28083 13.7226 3.2021 13.4741 3.15058 13.2192C3.11839 13.0003 3.09423 12.7804 3.07815 12.5597C2.79986 8.46313 5.34068 4.81678 9.03965 3.5172ZM12.6056 20.8718C10.173 21.038 7.89866 20.2085 6.18012 18.7324C8.34888 19.0282 10.4353 18.339 11.8565 17.4957C14.6844 19.4666 16.5203 19.1807 17.3853 18.1571C17.7278 17.7579 17.8905 17.235 17.8349 16.7119C17.7794 16.1888 17.5105 15.7117 17.0917 15.3933C16.2524 14.7535 15.0533 14.9157 14.4141 15.7555C14.3596 15.8279 14.3104 15.9064 14.2673 15.9846C14.1636 15.9316 14.0538 15.8729 13.9425 15.8085C14.7393 14.9864 15.3923 14.0362 15.8741 12.9977C16.0467 12.6462 16.1983 12.2848 16.3282 11.9154C17.2679 12.6085 18.1797 13.6359 18.5831 14.8432C18.9727 16.0097 18.8236 17.3249 18.0448 18.4038C17.8909 18.6131 17.7151 18.8053 17.5202 18.9771L17.5126 18.9848C16.1052 20.0933 14.3955 20.7505 12.6079 20.8699C12.6079 20.8699 12.6056 20.8718 12.6056 20.8718Z" fill="#000000" fill-rule="nonzero" opacity="1" stroke="none"/>
</svg>
