<svg stroke-miterlimit="10" style="fill-rule:nonzero;clip-rule:evenodd;stroke-linecap:round;stroke-linejoin:round;" version="1.1" viewBox="0 0 100 100" xml:space="preserve" xmlns="http://www.w3.org/2000/svg" xmlns:xlink="http://www.w3.org/1999/xlink">
<path d="M47.63 74.22C44.8192 76.2319 41.4565 77.3283 38 77.36C32.06 77.36 26.53 74.08 22.45 68.16C18.7217 62.474 16.6605 55.8574 16.5 49.06C16.4908 48.8011 16.6361 48.5614 16.87 48.45L20.87 46.64C21.0209 46.5692 21.194 46.5622 21.3502 46.6205C21.5063 46.6789 21.6324 46.7976 21.7 46.95C21.7365 47.0317 21.7536 47.1206 21.75 47.21L21.75 47.21C21.6182 53.5535 23.3798 59.7923 26.81 65.13C29.9 69.56 33.87 72 38 72C40.2441 71.9632 42.4279 71.2678 44.28 70C44.5573 69.8122 44.9337 69.8786 45.13 70.15C45.9223 71.2341 46.7912 72.26 47.73 73.22C47.8473 73.3364 47.9132 73.4948 47.9132 73.66C47.9132 73.8252 47.8473 73.9836 47.73 74.1C47.7092 74.149 47.6744 74.1907 47.63 74.22Z" fill="#a566ff" fill-rule="nonzero" opacity="1" stroke="none"/>
<path d="M77.58 68.15C73.5 74.1 68 77.34 62 77.34C56 77.34 50.53 74.07 46.44 68.15C42.396 61.9248 40.3064 54.6322 40.44 47.21C40.44 39.94 44.63 34.21 49.99 34.21C55.35 34.21 59.52 39.91 59.52 47.21C59.5917 53.5671 58.0905 59.8434 55.15 65.48C55.0695 65.6303 54.9324 65.7422 54.7691 65.791C54.6058 65.8398 54.4297 65.8215 54.28 65.74C54.2167 65.702 54.1595 65.6548 54.11 65.6C53.6173 65.0387 53.1598 64.4476 52.74 63.83C52.2497 63.1207 51.8023 62.3827 51.4 61.62C51.3203 61.4488 51.3203 61.2512 51.4 61.08C53.2873 56.7086 54.241 51.9912 54.2 47.23C54.2 43.62 52.4 39.6 50 39.6C47.6 39.6 45.8 43.6 45.8 47.23C45.6664 53.572 47.432 59.8091 50.87 65.14C53.87 69.58 57.87 72.03 62.02 72.03C66.17 72.03 70.13 69.58 73.17 65.14C76.5973 59.8043 78.362 53.5705 78.24 47.23C78.375 40.8847 76.6093 34.644 73.17 29.31C72.2373 27.9311 71.1316 26.6776 69.88 25.58C69.7471 25.4791 69.6605 25.3288 69.6398 25.1632C69.6191 24.9975 69.666 24.8306 69.77 24.7C69.8375 24.6116 69.9272 24.5425 70.03 24.5L74.03 22.7C74.2705 22.59 74.5541 22.642 74.74 22.83C75.7796 23.8912 76.7233 25.0424 77.56 26.27C81.6023 32.496 83.6917 39.788 83.56 47.21C83.6977 54.6299 81.6153 61.9218 77.58 68.15Z" fill="#a566ff" fill-rule="nonzero" opacity="1" stroke="none"/>
</svg>
