<svg width="24" height="24" viewBox="0 0 24 24" fill="none">
  <path
    d="M8.794 3.54154C8.794 1.77092 10.2294 0.335543 12 0.335543C13.7706 0.335543 15.206 1.77092 15.206 3.54154C15.206 5.31217 13.7706 6.74754 12 6.74754C10.2294 6.74754 8.794 5.31217 8.794 3.54154Z"
    fill="#000000" fill-rule="nonzero" />
  <path
    d="M20.9196 13.4523C19.3853 12.5679 17.4252 13.0946 16.5408 14.6289C16.2363 15.1568 16.0995 15.7349 16.1125 16.3024L16.1125 16.3024C16.1447 17.7154 14.874 18.4507 13.6659 17.721C13.6182 17.6919 13.5694 17.6634 13.5198 17.6368C12.2981 16.9548 12.2987 15.5022 13.5211 14.8207C14.5219 14.2785 15.2021 13.2183 15.2021 12.0003C15.2021 11.9756 15.2008 11.9514 15.2002 11.9273L15.2014 11.9291C15.1699 10.5143 16.4436 9.77963 17.653 10.5149L17.653 10.5149C18.6216 11.1029 19.873 11.158 20.9233 10.5508C22.4564 9.66513 22.9813 7.70377 22.0956 6.17071C21.2099 4.63765 19.2486 4.11281 17.7155 4.99848C16.6658 5.60502 16.0896 6.71474 16.1137 7.84674L16.1137 7.84674C16.1453 9.2585 14.8759 9.99315 13.669 9.26469C13.1819 8.96637 12.61 8.79431 11.9973 8.79431C11.3846 8.79431 10.8127 8.96637 10.3262 9.26407C9.1218 9.99006 7.85611 9.25664 7.8883 7.84798L7.8883 7.84798C7.91305 6.7135 7.33374 5.60131 6.28096 4.99538C4.74604 4.11281 2.78593 4.64136 1.90335 6.17628C1.02077 7.7112 1.54933 9.67132 3.08425 10.5539C4.13331 11.1573 5.38106 11.101 6.34781 10.5149L6.34781 10.5149C7.55408 9.78272 8.82472 10.5168 8.79254 11.9279L8.79377 11.926C8.79377 11.9508 8.79192 11.9756 8.79192 12.0009C8.79192 13.2196 9.47149 14.2792 10.4729 14.8213C11.6959 15.5034 11.6953 16.9579 10.4717 17.6387C10.4222 17.6653 10.3739 17.6937 10.3262 17.7228C9.1218 18.4476 7.85673 17.7136 7.88891 16.3049L7.88891 16.3049C7.90253 15.7349 7.76451 15.1537 7.45815 14.6239C6.57062 13.0915 4.60926 12.5691 3.07682 13.456C1.54128 14.3429 1.01891 16.3043 1.90582 17.8367C2.79335 19.3692 4.75471 19.8915 6.28715 19.0046C6.30696 18.9929 6.32614 18.9805 6.34595 18.9687L6.34409 18.9712C7.5516 18.2384 8.82224 18.973 8.78944 20.3848L8.79068 20.3829C8.79068 20.4089 8.78882 20.4356 8.78882 20.4615C8.79068 22.2323 10.2272 23.6663 11.9979 23.6645C13.7686 23.6626 15.2027 22.2261 15.2008 20.4554C15.2008 20.4318 15.1996 20.4083 15.199 20.3848L15.2002 20.3867C15.168 18.9712 16.4424 18.2359 17.6524 18.9712L17.6505 18.9681C17.6728 18.9817 17.6938 18.9953 17.7161 19.0083C19.2504 19.8928 21.2105 19.3661 22.095 17.8318C22.9794 16.2975 22.4527 14.3373 20.9184 13.4529L20.9196 13.4523Z"
    fill="#000000" fill-rule="nonzero" />
</svg>